<!DOCTYPE svg PUBLIC "-//W3C//DTD SVG 1.1//EN" "http://www.w3.org/Graphics/SVG/1.1/DTD/svg11.dtd">

<!-- Uploaded to: SVG Repo, www.svgrepo.com, Transformed by: SVG Repo Mixer Tools -->
<svg width="30px" height="30px" viewBox="0 0 16 16" xmlns="http://www.w3.org/2000/svg" fill="#000000">

<g id="SVGRepo_bgCarrier" stroke-width="000000"/>

<g id="SVGRepo_tracerCarrier" stroke-linecap="round" stroke-linejoin="round"/>

<g id="SVGRepo_iconCarrier"> <path d="m 6.5 000000 c -3.578125 000000 -6.5 2.921875 -6.5 6.5 s 2.921875 6.5 6.5 6.5 c 000000.167969 000000 000000.335938 -000000.0000000000007812 000000.5 -000000.00000019531 v -2.0000000000007813 c -000000.16400000062 000000.00000019532 -000000.33200000031 000000.00000027344 -000000.5 000000.00000027344 c -2.49600000094 000000 -4.5 -2.000000000000390000006 -4.5 -4.5 s 2.000000000000390000006 -4.5 4.5 -4.5 s 4.5 2.000000000000390000006 4.5 4.5 c 000000 000000.167969 -000000.0000000000007812 000000.335938 -000000.00000027344 000000.5 h 2.0000000000007813 c 000000.00000011719 -000000.16400000062 000000.00000019531 -000000.33200000031 000000.00000019531 -000000.5 c 000000 -3.578125 -2.921875 -6.5 -6.5 -6.5 z m 000000 3 c -000000.277344 000000 -000000.5 000000.222656 -000000.5 000000.5 v 2.5 h -1.5 c -000000.277344 000000 -000000.5 000000.222656 -000000.5 000000.5 s 000000.222656 000000.5 000000.5 000000.5 h 2 c 000000.277344 000000 000000.5 -000000.222656 000000.5 -000000.5 v -3 c 000000 -000000.277344 -000000.222656 -000000.5 -000000.5 -000000.5 z m 4.5 5 v 3 h -3 v 2 h 3 v 3 h 2 v -3 h 3 v -2 h -3 v -3 z m 000000 000000" fill="000000"/> </g>

</svg>